<?xml version="1.0" encoding="UTF-8" standalone="no"?>
<!-- Created with Inkscape (http://www.inkscape.org/) -->

<svg
   width="48"
   height="48"
   viewBox="0 0 48 48"
   version="1.1"
   id="svg1"
   inkscape:export-filename="groove-none.svg"
   inkscape:export-xdpi="96"
   inkscape:export-ydpi="96"
   xmlns:inkscape="http://www.inkscape.org/namespaces/inkscape"
   xmlns:sodipodi="http://sodipodi.sourceforge.net/DTD/sodipodi-0.dtd"
   xmlns="http://www.w3.org/2000/svg"
   xmlns:svg="http://www.w3.org/2000/svg">
  <sodipodi:namedview
     id="namedview1"
     pagecolor="#ffffff"
     bordercolor="#000000"
     borderopacity="0.25"
     inkscape:showpageshadow="2"
     inkscape:pageopacity="0.0"
     inkscape:pagecheckerboard="0"
     inkscape:deskcolor="#d1d1d1"
     inkscape:document-units="px" />
  <defs
     id="defs1" />
  <g
     inkscape:label="Layer 1"
     inkscape:groupmode="layer"
     id="layer1">
    <path
       d="m 1,1 v 46 h 9.615234 a 14.014667,10.955418 0 0 1 0.07227,-0.576172 14.014667,10.955418 0 0 1 0.796875,-2.056641 14.014667,10.955418 0 0 1 1.294922,-1.892578 14.014667,10.955418 0 0 1 1.744141,-1.660156 14.014667,10.955418 0 0 1 2.123046,-1.363281 14.014667,10.955418 0 0 1 2.423828,-1.011719 14.014667,10.955418 0 0 1 2.628907,-0.625 14.014667,10.955418 0 0 1 2.734375,-0.208984 14.014667,10.955418 0 0 1 0.955078,0.02539 14.014667,10.955418 0 0 1 0.953125,0.07617 14.014667,10.955418 0 0 1 0.941406,0.126953 14.014667,10.955418 0 0 1 0.929688,0.177735 14.014667,10.955418 0 0 1 0.912109,0.226562 14.014667,10.955418 0 0 1 0.890625,0.273438 14.014667,10.955418 0 0 1 0.865234,0.322265 14.014667,10.955418 0 0 1 0.833985,0.365235 14.014667,10.955418 0 0 1 0.798828,0.410156 14.014667,10.955418 0 0 1 0.763672,0.453125 14.014667,10.955418 0 0 1 0.720703,0.490234 14.014667,10.955418 0 0 1 0.677734,0.529297 14.014667,10.955418 0 0 1 0.628906,0.564453 14.014667,10.955418 0 0 1 0.578125,0.595703 14.014667,10.955418 0 0 1 0.523438,0.625 14.014667,10.955418 0 0 1 0.470703,0.652344 14.014667,10.955418 0 0 1 0.410156,0.675781 14.014667,10.955418 0 0 1 0.351563,0.695313 14.014667,10.955418 0 0 1 0.289062,0.714844 14.014667,10.955418 0 0 1 0.226563,0.726562 A 14.014667,10.955418 0 0 1 38.300781,47 H 47 V 1 Z"
       style="fill:none;stroke:#000000;stroke-width:1.02187"
       id="path4" />
  </g>
</svg>
